*******************************************************************************
                         Fairview Falls (2011) WEBRip
*******************************************************************************

-------------------------------------------------------------------------------
                              General Information
-------------------------------------------------------------------------------
Type.................: Movie



Video Format.........: AVI
Video Bitrate........: 1692
Resolution...........: 640 x 480
Color................: 8 bit
FPS..................: 29.97
Source...............: WEB 4:3
Original Format......: NTSC
Genre................: Horror
IMDb Rating..........: None Yet
Movie Information....: http://www.imdb.com/title/tt1477858/

-------------------------------------------------------------------------------
                               Post Information
-------------------------------------------------------------------------------
Posted by............: RadioResearch
Posted on............: 4/6/2013

-------------------------------------------------------------------------------
                                 Release Notes
-------------------------------------------------------------------------------
SEEDBOX SUPPORTED!!

It was the summer after graduation when a small circle of friends set off into 
the woods on a dare and made their way to the creek where a series of 
ritualistic animal murders had been discovered. When they returned from they 
woods they were not alone. When the son of the town mafia boss is murdered, it 
sets off a chain of events that leads to the discovery of a new threat forged by 
the most sinister evil Fairview Falls has ever seen.

OK, the big pull for this video was Debbie Rochon, but it turns out she only has 
about a 5-6 minute cameo.  Disappointing, but the film was pretty good for being 
shot direct to video.  The actors really acted and the plot made sense, so 
perhaps it is not impossible for low budget flicks to actually be good.  Judge 
for yourself.

Enjoy!

RadioResearch

General
Complete name                            : G:DownloadsFairview Falls (2011) 
WEBRipFairview Falls.avi
Format                                   : AVI
Format/Info                              : Audio Video Interleave
File size                                : 1.15 GiB
Duration                                 : 1h 37mn
Overall bit rate                         : 1 692 Kbps

Video
ID                                       : 0
Format                                   : MPEG-4 Visual
Format profile                           : Simple@L3
Format settings, BVOP                    : No
Format settings, QPel                    : No
Format settings, GMC                     : No warppoints
Format settings, Matrix                  : Default (H.263)
Codec ID                                 : XVID
Codec ID/Hint                            : XviD
Duration                                 : 1h 37mn
Bit rate                                 : 1 550 Kbps
Width                                    : 640 pixels
Height                                   : 480 pixels
Display aspect ratio                     : 4:3
Frame rate                               : 29.970 fps
Original frame rate                      : 29.000 fps
Color space                              : YUV
Chroma subsampling                       : 4:2:0
Bit depth                                : 8 bits
Scan type                                : Progressive
Compression mode                         : Lossy
Bits/(Pixel*Frame)                       : 0.168
Stream size                              : 1.05 GiB (92%)
Writing library                          : XviD 1.2.1 (UTC 2008-12-04)

Audio
ID                                       : 1
Format                                   : MPEG Audio
Format version                           : Version 1
Format profile                           : Layer 3
Mode                                     : Joint stereo
Mode extension                           : MS Stereo
Codec ID                                 : 55
Codec ID/Hint                            : MP3
Duration                                 : 1h 37mn
Bit rate mode                            : Constant
Bit rate                                 : 128 Kbps
Channel(s)                               : 2 channels
Sampling rate                            : 44.1 KHz
Compression mode                         : Lossy
Stream size                              : 88.9 MiB (8%)
Alignment                                : Aligned on interleaves
Interleave, duration                     : 26 ms (0.78 video frame)
Writing library                          : LAME3.98.2




-------------------------------------------------------------------------------
Generated with Cool NFO Creator - http://fly.to/coolbeans
-------------------------------------------------------------------------------
